<svg viewBox="0 0 128 128" xmlns="http://www.w3.org/2000/svg"><path d="m18.814 114.123-10.054-112.771h110.48l-10.064 112.754-45.243 12.543z" fill="#1572b6"/><path d="m64.001 117.062 36.559-10.136 8.601-96.354h-45.16z" fill="#33a9dc"/><path d="m64.001 51.429h18.302l1.264-14.163h-19.566v-13.831h34.682l-.332 3.711-3.4 38.114h-30.95z" fill="#fff"/><path d="m64.083 87.349-.061.018-15.403-4.159-.985-11.031h-13.882l1.937 21.717 28.331 7.863.063-.018z" fill="#ebebeb"/><path d="m81.127 64.675-1.666 18.522-15.426 4.164v14.39l28.354-7.858.208-2.337 2.406-26.881z" fill="#fff"/><path d="m64.048 23.435v13.831h-33.408l-.277-3.108-.63-7.012-.331-3.711zm-.047 27.996v13.831h-15.209l-.277-3.108-.631-7.012-.33-3.711z" fill="#ebebeb"/></svg>